# File created by Blade
# Date/Time:  Tue Sep 30 19:29:15 2014
#---------------------------------------------------------
:version 1.10
:name HOM
:units
  mass 1.0
  length 1.000000
  angle deg
:documentation
     Acclaim Skeleton File
:root
   axis xyz
   order TX TY TZ RX RY RZ
   position 0.000000 0.000000 0.000000
   orientation 0 0 0
:bonedata
   begin
      id 1
      name RightUpLeg_dum
      direction -1.000000 0.000000 0.000000
      length 3.766986
      axis 0.0 0.0 0.0 xyz
   end
   begin
      id 2
      name LeftUpLeg_dum
      direction 1.000000 0.000000 0.000000
      length 3.766986
      axis 0.0 0.0 0.0 xyz
   end
   begin
      id 3
      name Spine_dum
      direction 0.000000 1.000000 0.000000
      length 7.779697
      axis 0.0 0.0 0.0 xyz
   end
   begin
      id 4
      name RightUpLeg
      direction 0.000000 -1.000000 0.000000
      length 18.017682
      axis 0.0 0.0 0.0 xyz
      dof rx ry rz
   end
   begin
      id 5
      name RightLeg
      direction 0.000000 -1.000000 0.000000
      length 16.881075
      axis 0.0 0.0 0.0 xyz
      dof rx ry rz
   end
   begin
      id 6
      name RightFoot
      direction 0.000000 -0.258819 0.965926
      length 5.770812
      axis 15.0 0.0 0.0 xyz
      dof rx ry rz
   end
   begin
      id 7
      name RightToeBase
      direction 0.000000 0.000000 1.000000
      length 2.952750
      axis 0.0 0.0 0.0 xyz
      dof rx ry rz
   end
   begin
      id 8
      name LeftUpLeg
      direction 0.000000 -1.000000 0.000000
      length 18.017682
      axis 0.0 0.0 0.0 xyz
      dof rx ry rz
   end
   begin
      id 9
      name LeftLeg
      direction 0.000000 -1.000000 0.000000
      length 16.881075
      axis 0.0 0.0 0.0 xyz
      dof rx ry rz
   end
   begin
      id 10
      name LeftFoot
      direction 0.000000 -0.258819 0.965926
      length 5.770812
      axis 15.0 0.0 0.0 xyz
      dof rx ry rz
   end
   begin
      id 11
      name LeftToeBase
      direction 0.000000 0.000000 1.000000
      length 2.952750
      axis 0.0 0.0 0.0 xyz
      dof rx ry rz
   end
   begin
      id 12
      name Spine
      direction 0.000000 1.000000 0.000000
      length 0.000000
      axis 0.0 0.0 0.0 xyz
      dof rx ry rz
   end
   begin
      id 13
      name Spine_dum1
      direction 0.000000 1.000000 0.000000
      length 10.941760
      axis 0.0 0.0 0.0 xyz
   end
   begin
      id 14
      name Spine_dum2
      direction 0.000000 1.000000 0.000000
      length 10.941760
      axis 0.0 0.0 0.0 xyz
   end
   begin
      id 15
      name Spine_dum3
      direction 0.000000 1.000000 0.000000
      length 16.646042
      axis 0.0 0.0 0.0 xyz
   end
   begin
      id 16
      name RightShoulder
      direction -1.000000 0.000000 0.000000
      length 7.708937
      axis 0.0 0.0 90.0 xyz
      dof rx ry rz
   end
   begin
      id 17
      name RightArm
      direction -1.000000 0.000000 0.000000
      length 11.521345
      axis 0.0 0.0 90.0 xyz
      dof rx ry rz
   end
   begin
      id 18
      name RightForeArm
      direction -1.000000 0.000000 0.000000
      length 10.175898
      axis 0.0 0.0 90.0 xyz
      dof ry rz rx
   end
   begin
      id 19
      name RightHand
      direction -1.000000 0.000000 0.000000
      length 0.000000
      axis 0.0 0.0 90.0 xyz
      dof rx ry rz
   end
   begin
      id 20
      name RightHand_dum1
      direction -1.000000 0.000000 0.000000
      length 3.937000
      axis 0.0 0.0 90.0 xyz
   end
   begin
      id 21
      name RightHand_dum2
      direction 0.000000 0.000000 0.000000
      length 0.000000
      axis 0.0 0.0 90.0 xyz
   end
   begin
      id 22
      name RightHandThumb1
      direction 0.000000 0.000000 1.000000
      length 3.937000
      axis 0.0 0.0 90.0 xyz
      dof rx rz ry
   end
   begin
      id 23
      name LeftShoulder
      direction 1.000000 0.000000 0.000000
      length 7.708937
      axis 0.0 0.0 -90.0 xyz
      dof rx ry rz
   end
   begin
      id 24
      name LeftArm
      direction 1.000000 0.000000 0.000000
      length 11.521345
      axis 0.0 0.0 -90.0 xyz
      dof rx ry rz
   end
   begin
      id 25
      name LeftForeArm
      direction 1.000000 0.000000 0.000000
      length 10.175898
      axis 0.0 0.0 -90.0 xyz
      dof ry rz rx
   end
   begin
      id 26
      name LeftHand
      direction 1.000000 0.000000 0.000000
      length 0.000000
      axis 0.0 0.0 -90.0 xyz
      dof rx ry rz
   end
   begin
      id 27
      name LeftHand_dum1
      direction 1.000000 0.000000 0.000000
      length 3.937000
      axis 0.0 0.0 -90.0 xyz
   end
   begin
      id 28
      name LeftHand_dum2
      direction 0.000000 0.000000 0.000000
      length 0.000000
      axis 0.0 0.0 -90.0 xyz
   end
   begin
      id 29
      name LeftHandThumb1
      direction 0.000000 0.000000 1.000000
      length 3.937000
      axis 0.0 0.0 -90.0 xyz
      dof rx rz ry
   end
   begin
      id 30
      name Head
      direction 0.000000 1.000000 0.000000
      length 4.527550
      axis 0.0 0.0 0.0 xyz
      dof rx ry rz
   end
:hierarchy
   begin
      root RightUpLeg_dum LeftUpLeg_dum Spine_dum
      RightUpLeg_dum RightUpLeg
      LeftUpLeg_dum LeftUpLeg
      Spine_dum Spine
      RightUpLeg RightLeg
      RightLeg RightFoot
      RightFoot RightToeBase
      LeftUpLeg LeftLeg
      LeftLeg LeftFoot
      LeftFoot LeftToeBase
      Spine Spine_dum1 Spine_dum2 Spine_dum3
      Spine_dum1 RightShoulder
      Spine_dum2 LeftShoulder
      Spine_dum3 Head
      RightShoulder RightArm
      RightArm RightForeArm
      RightForeArm RightHand
      RightHand RightHand_dum1 RightHand_dum2
      RightHand_dum2 RightHandThumb1
      LeftShoulder LeftArm
      LeftArm LeftForeArm
      LeftForeArm LeftHand
      LeftHand LeftHand_dum1 LeftHand_dum2
      LeftHand_dum2 LeftHandThumb1
   end

# File created by Blade
# Date/Time:  Mon Sep 22 16:45:27 2014
# Frame Rate: 120.000 fps
#------------------------------------------------------
:FULLY-SPECIFIED
:DEGREES
540
root 3.776045 37.265537 2.471439 -40.863456 -14.583435 18.206114
RightUpLeg 31.846593 3.289971 -13.709400
RightLeg 24.075194 -0.000000 -0.000000
RightFoot -26.225410 0.056322 10.369734
RightToeBase 12.331347 -0.000000 -0.000000
LeftUpLeg -74.285267 -11.977842 -14.933554
LeftLeg 139.806904 -0.000000 -0.000000
LeftFoot 24.177188 6.534372 -28.574742
LeftToeBase 9.940538 -0.000000 -0.000000
Spine 43.359671 19.941689 0.568371
RightShoulder 11.976369 -6.786649 -25.680453
RightArm 41.393608 16.079707 45.827096
RightForeArm -7.051577 -0.000000 62.455001
RightHand 0.103829 0.000000 -13.232706
RightHandThumb1 -24.326973 -0.000000 -32.862282
LeftShoulder -26.650398 32.841265 -13.403760
LeftArm 30.699125 -7.262878 -70.549221
LeftForeArm 35.636897 0.000000 14.605836
LeftHand -15.631954 0.000000 -8.620096
LeftHandThumb1 -26.253704 0.000000 33.147579
Head 0.463177 -1.237472 -9.183816
541
root 3.774891 37.265245 2.445387 -40.579873 -14.638968 18.176300
RightUpLeg 31.539573 3.281804 -13.606661
RightLeg 24.057218 -0.000000 -0.000000
RightFoot -26.204630 -0.033968 10.343538
RightToeBase 12.289690 -0.000000 -0.000000
LeftUpLeg -74.027685 -12.206572 -14.745258
LeftLeg 139.429352 -0.000000 -0.000000
LeftFoot 23.159888 6.664016 -27.967338
LeftToeBase 9.580601 -0.000000 -0.000000
Spine 43.147358 20.040734 0.474300
RightShoulder 11.925203 -6.808399 -25.621190
RightArm 41.184106 16.189409 45.865525
RightForeArm -6.994364 -0.000000 62.572047
RightHand 0.098867 -0.000000 -13.326619
RightHandThumb1 -24.326973 -0.000000 -32.862282
LeftShoulder -26.605404 32.832721 -13.419806
LeftArm 30.764231 -7.202081 -70.484271
LeftForeArm 35.460667 -0.000000 14.666016
LeftHand -15.570158 -0.000000 -8.359567
LeftHandThumb1 -26.253704 0.000000 33.147579
Head 0.311506 -1.359821 -9.152708
542
root 3.770880 37.265841 2.417700 -40.313702 -14.663547 18.128309
RightUpLeg 31.287189 3.258721 -13.492655
RightLeg 23.995342 -0.000000 -0.000000
RightFoot -26.147761 -0.149280 10.276731
RightToeBase 12.215873 -0.000000 -0.000000
LeftUpLeg -73.755705 -12.403479 -14.613836
LeftLeg 138.957793 -0.000000 -0.000000
LeftFoot 22.054259 6.990935 -27.346470
LeftToeBase 8.944177 -0.000000 -0.000000
Spine 42.948939 20.065584 0.333028
RightShoulder 11.905387 -6.708035 -25.545805
RightArm 40.941972 16.205013 45.887069
RightForeArm -6.920116 0.000000 62.658811
RightHand 0.108255 -0.000000 -13.633520
RightHandThumb1 -24.326973 -0.000000 -32.862282
LeftShoulder -26.613937 32.839538 -13.449716
LeftArm 30.852464 -7.169345 -70.457881
LeftForeArm 35.398324 0.000000 14.729261
LeftHand -15.416710 -0.000000 -8.414568
LeftHandThumb1 -26.253704 0.000000 33.147579
Head 0.182050 -1.480402 -9.182312
543
root 3.765039 37.266459 2.388064 -40.030223 -14.668468 18.054876
RightUpLeg 31.037091 3.207923 -13.364248
RightLeg 23.925760 -0.000000 -0.000000
RightFoot -26.106937 -0.249361 10.277872
RightToeBase 12.177278 -0.000000 -0.000000
LeftUpLeg -73.519287 -12.588190 -14.473441
LeftLeg 138.426400 -0.000000 -0.000000
LeftFoot 20.850368 7.334737 -26.721318
LeftToeBase 8.703156 -0.000000 -0.000000
Spine 42.738108 20.033237 0.180760
RightShoulder 11.908732 -6.583060 -25.491507
RightArm 40.740743 16.231357 45.986583
RightForeArm -6.963293 -0.000000 62.714762
RightHand 0.084902 -0.000000 -13.651935
RightHandThumb1 -24.326973 -0.000000 -32.862282
LeftShoulder -26.570775 32.796478 -13.452074
LeftArm 30.832316 -7.145715 -70.423406
LeftForeArm 35.261775 -0.000000 14.849049
LeftHand -15.310516 -0.000000 -8.727165
LeftHandThumb1 -26.253704 0.000000 33.147579
Head 0.009976 -1.472445 -9.210649
544
root 3.758559 37.266919 2.360114 -39.761623 -14.659590 17.985202
RightUpLeg 30.802597 3.120864 -13.280355
RightLeg 23.858838 -0.000000 -0.000000
RightFoot -26.052338 -0.269496 10.270782
RightToeBase 12.174024 -0.000000 -0.000000
LeftUpLeg -73.287251 -12.732194 -14.402824
LeftLeg 137.862930 -0.000000 -0.000000
LeftFoot 19.498579 7.543635 -25.861951
LeftToeBase 8.564907 -0.000000 -0.000000
Spine 42.527452 19.999834 0.025560
RightShoulder 11.926780 -6.476406 -25.442003
RightArm 40.517842 16.278538 46.030332
RightForeArm -7.031988 -0.000000 62.758008
RightHand 0.071097 -0.000000 -13.709610
RightHandThumb1 -24.326973 -0.000000 -32.862282
LeftShoulder -26.521757 32.791604 -13.438206
LeftArm 30.838896 -7.082800 -70.387939
LeftForeArm 35.184929 -0.000000 14.932910
LeftHand -15.206613 0.000000 -8.827432
LeftHandThumb1 -26.253704 0.000000 33.147579
Head -0.113070 -1.457173 -9.221538
545
root 3.752605 37.268092 2.335205 -39.522593 -14.627872 17.905476
RightUpLeg 30.618539 3.028649 -13.196514
RightLeg 23.778355 -0.000000 -0.000000
RightFoot -26.003587 -0.310326 10.275973
RightToeBase 12.166315 -0.000000 -0.000000
LeftUpLeg -73.042938 -12.859744 -14.368101
LeftLeg 137.285091 -0.000000 -0.000000
LeftFoot 18.058390 7.803212 -25.208173
LeftToeBase 8.176650 -0.000000 -0.000000
Spine 42.391114 19.982618 -0.082827
RightShoulder 11.839733 -6.421920 -25.381981
RightArm 40.382621 16.336273 46.097843
RightForeArm -6.988133 -0.000000 62.804414
RightHand 0.073286 -0.000000 -13.722868
RightHandThumb1 -24.326973 -0.000000 -32.862282
LeftShoulder -26.486637 32.808795 -13.420453
LeftArm 30.942643 -6.924873 -70.319487
LeftForeArm 35.109393 -0.000000 14.959368
LeftHand -14.979016 -0.000000 -8.963611
LeftHandThumb1 -26.253704 0.000000 33.147579
Head -0.266745 -1.494639 -9.193146
546
root 3.743671 37.267618 2.311483 -39.287866 -14.610886 17.785465
RightUpLeg 30.463569 2.950592 -13.041551
RightLeg 23.686695 -0.000000 -0.000000
RightFoot -25.976736 -0.365201 10.371234
RightToeBase 12.245240 -0.000000 -0.000000
LeftUpLeg -72.831991 -12.957622 -14.294701
LeftLeg 136.744906 -0.000000 -0.000000
LeftFoot 16.393822 7.919767 -24.726540
LeftToeBase 8.408463 -0.000000 -0.000000
Spine 42.264862 19.905422 -0.136600
RightShoulder 11.793013 -6.423473 -25.398760
RightArm 40.311851 16.456793 46.214979
RightForeArm -6.962654 -0.000000 62.832742
RightHand 0.098188 -0.000000 -13.673600
RightHandThumb1 -24.326973 -0.000000 -32.862282
LeftShoulder -26.462071 32.827816 -13.445705
LeftArm 31.030961 -6.760451 -70.232609
LeftForeArm 34.998191 -0.000000 14.986279
LeftHand -14.945049 -0.000000 -9.143709
LeftHandThumb1 -26.253704 0.000000 33.147579
Head -0.417899 -1.308233 -9.151485
547
root 3.731367 37.266914 2.288476 -39.065109 -14.581063 17.688908
RightUpLeg 30.306083 2.863861 -12.917150
RightLeg 23.609447 -0.000000 -0.000000
RightFoot -25.944045 -0.461584 10.373229
RightToeBase 12.276684 -0.000000 -0.000000
LeftUpLeg -72.631368 -12.999106 -14.276793
LeftLeg 136.213921 -0.000000 -0.000000
LeftFoot 14.723599 8.034060 -24.224744
LeftToeBase 8.034059 -0.000000 -0.000000
Spine 42.124865 19.885220 -0.268517
RightShoulder 11.746720 -6.386155 -25.296881
RightArm 40.181273 16.548052 46.243421
RightForeArm -6.928394 0.000000 62.869676
RightHand 0.141436 -0.000000 -13.783370
RightHandThumb1 -24.326973 -0.000000 -32.862282
LeftShoulder -26.400756 32.810365 -13.330092
LeftArm 31.047015 -6.655526 -70.259426
LeftForeArm 35.033711 -0.000000 15.054184
LeftHand -14.802847 -0.000000 -9.356553
LeftHandThumb1 -26.253704 0.000000 33.147579
Head -0.537396 -1.474416 -9.117051
548
root 3.718956 37.265796 2.267334 -38.873956 -14.556820 17.612226
RightUpLeg 30.152309 2.778965 -12.827520
RightLeg 23.574103 -0.000000 -0.000000
RightFoot -25.906796 -0.498579 10.356010
RightToeBase 12.227026 -0.000000 -0.000000
LeftUpLeg -72.444435 -12.976534 -14.287448
LeftLeg 135.734539 -0.000000 -0.000000
LeftFoot 12.966134 8.017476 -23.679126
LeftToeBase 7.862192 -0.000000 -0.000000
Spine 42.006196 19.793765 -0.418088
RightShoulder 11.758179 -6.346053 -25.294704
RightArm 40.123942 16.651774 46.335255
RightForeArm -6.871030 -0.000000 62.885255
RightHand 0.124230 -0.000000 -13.789631
RightHandThumb1 -24.326973 -0.000000 -32.862282
LeftShoulder -26.403267 32.723321 -13.280744
LeftArm 31.029214 -6.473455 -70.208979
LeftForeArm 35.019752 -0.000000 15.070858
LeftHand -14.761081 0.000000 -9.426290
LeftHandThumb1 -26.253704 0.000000 33.147579
Head -0.677681 -1.325212 -9.074858
549
root 3.707139 37.263495 2.247708 -38.658170 -14.542582 17.524771
RightUpLeg 29.951417 2.682525 -12.749997
RightLeg 23.582563 -0.000000 -0.000000
RightFoot -25.869659 -0.432393 10.435714
RightToeBase 12.290145 -0.000000 -0.000000
LeftUpLeg -72.317997 -12.922944 -14.274532
LeftLeg 135.323552 -0.000000 -0.000000
LeftFoot 11.258474 7.893270 -23.118955
LeftToeBase 7.473178 -0.000000 -0.000000
Spine 41.857631 19.764131 -0.519296
RightShoulder 11.727967 -6.384519 -25.254203
RightArm 40.064600 16.770921 46.374068
RightForeArm -6.817072 0.000000 62.920288
RightHand 0.150669 -0.000000 -13.771383
RightHandThumb1 -24.326973 -0.000000 -32.862282
LeftShoulder -26.378397 32.757234 -13.240366
LeftArm 31.122716 -6.377867 -70.217921
LeftForeArm 35.068412 -0.000000 15.060969
LeftHand -14.602084 -0.000000 -9.530233
LeftHandThumb1 -26.253704 0.000000 33.147579
Head -0.731551 -1.429289 -9.091121
550
root 3.694899 37.260888 2.233806 -38.501805 -14.543421 17.465493
RightUpLeg 29.790413 2.587629 -12.716810
RightLeg 23.611477 -0.000000 -0.000000
RightFoot -25.851607 -0.351593 10.471650
RightToeBase 12.333192 -0.000000 -0.000000
LeftUpLeg -72.175588 -12.836494 -14.304170
LeftLeg 134.980930 -0.000000 -0.000000
LeftFoot 9.577624 7.755776 -22.574871
LeftToeBase 7.034784 -0.000000 -0.000000
Spine 41.772770 19.774113 -0.596323
RightShoulder 11.659086 -6.444260 -25.225554
RightArm 40.045475 16.880562 46.389584
RightForeArm -6.767974 -0.000000 62.918946
RightHand 0.146227 -0.000000 -13.834520
RightHandThumb1 -24.326973 -0.000000 -32.862282
LeftShoulder -26.401307 32.885951 -13.258711
LeftArm 31.335353 -6.309963 -70.243054
LeftForeArm 35.153851 -0.000000 15.065261
LeftHand -14.592853 0.000000 -9.582293
LeftHandThumb1 -26.253704 0.000000 33.147579
Head -0.808204 -1.474926 -9.045693
551
root 3.682274 37.256134 2.222250 -38.334175 -14.554723 17.398359
RightUpLeg 29.617037 2.468807 -12.679236
RightLeg 23.646321 -0.000000 -0.000000
RightFoot -25.821157 -0.352605 10.414856
RightToeBase 12.291631 -0.000000 -0.000000
LeftUpLeg -72.098617 -12.764673 -14.296336
LeftLeg 134.725288 -0.000000 -0.000000
LeftFoot 7.952847 7.544002 -22.294578
LeftToeBase 6.744196 -0.000000 -0.000000
Spine 41.648316 19.748944 -0.688267
RightShoulder 11.635571 -6.478890 -25.206376
RightArm 40.014664 16.953109 46.396457
RightForeArm -6.741251 -0.000000 62.915724
RightHand 0.173786 -0.000000 -13.908609
RightHandThumb1 -24.326973 -0.000000 -32.862282
LeftShoulder -26.311909 32.753714 -13.102009
LeftArm 31.184387 -6.183687 -70.269501
LeftForeArm 35.201135 0.000000 15.115272
LeftHand -14.544117 -0.000000 -9.711259
LeftHandThumb1 -26.253704 0.000000 33.147579
Head -0.837853 -1.454371 -9.008902
552
root 3.669137 37.250372 2.213197 -38.172630 -14.580444 17.311837
RightUpLeg 29.444102 2.342567 -12.641448
RightLeg 23.705754 -0.000000 -0.000000
RightFoot -25.809386 -0.191544 10.445576
RightToeBase 12.402898 -0.000000 -0.000000
LeftUpLeg -72.078315 -12.665634 -14.275814
LeftLeg 134.536043 -0.000000 -0.000000
LeftFoot 6.584267 7.376876 -22.122769
LeftToeBase 6.273596 -0.000000 -0.000000
Spine 41.531375 19.697434 -0.714853
RightShoulder 11.606238 -6.577599 -25.256176
RightArm 40.056562 17.037278 46.440980
RightForeArm -6.721585 0.000000 62.902313
RightHand 0.158597 -0.000000 -14.034803
RightHandThumb1 -24.326973 -0.000000 -32.862282
LeftShoulder -26.378366 32.917374 -13.212674
LeftArm 31.412570 -6.082324 -70.219539
LeftForeArm 35.185086 -0.000000 15.074194
LeftHand -14.492518 -0.000000 -9.779864
LeftHandThumb1 -26.253704 0.000000 33.147579
Head -0.851399 -1.320826 -9.017756
